<?xml version="1.0" standalone="no"?>
<!DOCTYPE svg PUBLIC "-//W3C//DTD SVG 20010904//EN"
 "http://www.w3.org/TR/2001/REC-SVG-20010904/DTD/svg10.dtd">
<svg version="1.0" xmlns="http://www.w3.org/2000/svg"
 width="2971.000000pt" height="2971.000000pt" viewBox="0 0 2971.000000 2971.000000"
 preserveAspectRatio="xMidYMid meet">
<metadata>
Created by potrace 1.14, written by Peter Selinger 2001-2017
</metadata>
<g transform="translate(0.000000,2971.000000) scale(0.100000,-0.100000)"
fill="#000000" stroke="none">
<path d="M14378 29575 c-1 -1 -79 -6 -173 -10 -93 -3 -190 -8 -215 -9 -25 -2
-97 -6 -160 -10 -63 -4 -131 -9 -150 -11 -19 -2 -73 -7 -120 -11 -47 -3 -92
-8 -101 -9 -8 -2 -55 -6 -104 -10 -49 -4 -92 -8 -95 -10 -3 -1 -39 -6 -80 -10
-41 -3 -86 -8 -100 -10 -14 -2 -47 -6 -75 -9 -47 -6 -236 -31 -315 -42 -19 -3
-60 -9 -90 -14 -30 -5 -75 -12 -100 -16 -66 -9 -79 -11 -148 -24 -35 -6 -75
-13 -90 -15 -15 -2 -52 -8 -82 -14 -30 -6 -66 -12 -80 -15 -394 -72 -1208
-266 -1353 -321 -20 -8 -38 -14 -40 -14 -3 2 -89 -21 -117 -31 -14 -5 -59 -19
-100 -31 -495 -145 -1306 -452 -1793 -678 -49 -23 -90 -41 -93 -41 -7 0 -657
-323 -719 -357 -257 -141 -415 -229 -442 -245 -18 -10 -50 -27 -70 -39 -238
-135 -661 -405 -1017 -649 -102 -69 -332 -236 -334 -242 -2 -5 -10 -8 -17 -8
-7 0 -15 -4 -17 -8 -1 -4 -59 -50 -128 -102 -119 -89 -409 -317 -420 -329 -3
-3 -41 -35 -85 -71 -44 -35 -82 -67 -85 -70 -3 -3 -32 -27 -65 -55 -33 -27
-65 -54 -71 -60 -6 -5 -40 -35 -75 -65 -427 -370 -945 -882 -1320 -1304 -24
-27 -51 -57 -59 -66 -28 -30 -249 -288 -297 -347 -27 -32 -93 -115 -148 -183
-55 -69 -103 -127 -106 -130 -16 -13 -358 -475 -470 -635 -132 -188 -358 -528
-450 -678 -30 -48 -61 -98 -69 -111 -30 -47 -249 -423 -280 -481 -18 -33 -50
-89 -70 -125 -77 -134 -410 -788 -410 -804 0 -2 -22 -51 -49 -108 -277 -587
-591 -1433 -768 -2068 -8 -30 -19 -66 -24 -80 -5 -14 -25 -88 -44 -165 -20
-77 -42 -162 -50 -190 -8 -27 -17 -61 -19 -75 -3 -14 -12 -52 -20 -85 -47
-183 -164 -745 -181 -865 -4 -24 -8 -47 -10 -50 -1 -3 -6 -27 -9 -54 -4 -27
-13 -85 -21 -130 -7 -44 -17 -101 -20 -126 -3 -25 -8 -58 -11 -75 -8 -51 -12
-78 -19 -135 -4 -30 -9 -63 -10 -72 -2 -9 -7 -43 -10 -75 -4 -32 -8 -69 -10
-83 -2 -14 -6 -52 -10 -85 -3 -33 -8 -71 -10 -85 -2 -14 -7 -61 -11 -105 -3
-44 -8 -87 -9 -95 -2 -9 -6 -60 -10 -115 -4 -55 -9 -108 -10 -117 -2 -9 -7
-68 -10 -130 -4 -62 -8 -133 -10 -158 -27 -339 -27 -1291 0 -1735 8 -131 17
-261 20 -275 2 -8 6 -60 9 -115 4 -55 9 -116 11 -135 2 -19 7 -60 10 -90 3
-30 8 -71 10 -90 3 -19 7 -60 10 -90 7 -71 14 -129 25 -210 5 -36 17 -119 26
-185 9 -66 18 -129 19 -140 3 -18 19 -120 30 -187 6 -33 13 -75 19 -103 2 -11
7 -42 11 -70 5 -27 9 -52 10 -55 1 -3 5 -25 10 -50 5 -25 9 -47 10 -50 1 -3 5
-27 10 -55 4 -27 23 -122 42 -210 19 -88 36 -169 38 -180 21 -103 143 -591
185 -740 17 -60 35 -123 40 -140 109 -394 387 -1189 519 -1490 5 -11 35 -81
66 -155 31 -74 63 -148 70 -165 45 -99 128 -281 160 -350 56 -122 265 -538
277 -552 6 -7 7 -13 4 -13 -4 0 1 -12 12 -28 10 -15 44 -74 74 -132 31 -58 89
-164 130 -236 41 -72 78 -137 82 -145 3 -8 22 -39 40 -69 19 -30 51 -84 71
-120 20 -35 72 -120 116 -188 43 -68 79 -125 79 -128 0 -9 343 -517 445 -659
134 -186 281 -386 316 -430 9 -11 92 -114 185 -230 141 -177 299 -367 396
-476 13 -14 48 -55 78 -90 260 -301 739 -788 1080 -1099 57 -52 113 -104 125
-115 12 -11 70 -63 131 -115 60 -52 116 -101 124 -109 18 -17 273 -228 345
-286 28 -21 52 -42 55 -45 10 -12 320 -250 430 -331 209 -155 579 -413 685
-479 13 -8 91 -58 172 -111 177 -114 497 -308 678 -409 302 -170 801 -427
1020 -527 39 -18 111 -51 160 -73 131 -61 373 -165 500 -216 61 -25 119 -49
130 -54 77 -36 550 -209 795 -291 285 -95 758 -238 875 -264 11 -2 79 -20 152
-39 72 -20 142 -38 155 -40 13 -3 104 -24 203 -46 99 -23 189 -44 200 -46 11
-2 52 -11 90 -19 164 -36 473 -93 705 -129 19 -3 44 -7 55 -10 19 -3 78 -12
155 -22 19 -3 46 -7 60 -9 14 -3 48 -7 75 -11 50 -5 62 -7 140 -18 22 -3 63
-8 90 -11 28 -3 69 -7 93 -10 98 -11 309 -32 407 -41 28 -2 75 -6 105 -8 30
-3 100 -8 155 -11 55 -3 114 -8 130 -10 207 -27 1440 -27 1795 0 25 2 88 6
140 10 52 3 111 7 130 10 19 2 76 6 125 10 85 6 116 9 218 20 23 2 69 7 102
10 70 8 438 54 475 60 14 2 48 7 75 10 196 25 825 140 1067 196 1093 251 2002
556 2973 999 434 198 1074 535 1450 764 28 17 59 36 70 43 186 109 785 503
870 570 6 5 75 55 155 113 194 139 593 447 710 546 14 12 88 75 165 140 77 65
142 120 145 123 3 3 39 35 80 71 41 36 80 69 86 75 6 5 55 51 109 100 314 286
661 634 986 987 38 41 136 152 225 254 44 50 208 243 262 309 84 101 316 399
423 542 73 98 146 197 163 220 253 339 671 1002 951 1508 142 258 352 676 469
935 31 69 61 132 65 141 11 19 132 304 194 454 189 460 396 1066 527 1540 12
44 28 100 36 125 11 39 49 185 59 230 2 8 19 78 38 155 19 77 40 165 47 195 6
30 18 82 25 115 8 33 16 71 19 85 2 14 14 68 25 121 11 53 33 170 50 260 28
153 34 183 45 257 3 15 12 68 20 117 8 50 17 108 20 130 3 22 10 74 16 115 6
41 13 91 15 110 3 19 9 68 14 110 6 41 13 100 16 130 3 30 8 71 11 90 2 19 7
62 9 95 3 33 7 76 10 95 2 19 6 71 10 115 3 44 8 96 10 115 3 19 7 82 11 140
3 58 7 121 9 140 26 260 26 1664 0 1800 -2 9 -6 70 -10 135 -4 66 -9 127 -10
135 -2 9 -6 60 -10 115 -3 55 -8 107 -10 115 -2 8 -7 42 -10 75 -3 33 -8 74
-10 90 -2 17 -7 64 -10 105 -4 41 -9 84 -11 95 -5 26 -12 80 -19 135 -5 49
-25 193 -30 225 -2 11 -8 54 -15 95 -13 93 -16 108 -41 250 -38 213 -49 275
-54 300 -3 14 -7 36 -10 50 -2 14 -20 99 -40 190 -122 573 -247 1036 -426
1575 -68 203 -149 432 -184 520 -5 11 -9 22 -9 25 -1 6 -25 68 -37 95 -4 11
-33 85 -64 165 -32 80 -64 161 -72 180 -9 19 -22 50 -29 68 -39 91 -115 264
-146 332 -17 36 -50 110 -75 165 -104 230 -325 663 -488 955 -51 91 -103 183
-115 205 -12 22 -31 52 -41 67 -11 14 -19 29 -19 32 0 18 -339 554 -495 782
-22 33 -44 66 -50 76 -13 20 -63 91 -193 271 -176 244 -226 312 -259 353 -18
21 -67 84 -110 139 -93 120 -292 366 -307 380 -6 6 -27 30 -47 55 -20 25 -49
59 -65 76 -16 18 -48 54 -70 80 -366 430 -1018 1082 -1438 1439 -33 28 -66 57
-75 66 -67 67 -536 443 -821 658 -464 351 -1084 752 -1655 1071 -217 121 -789
414 -975 499 -299 136 -829 361 -851 361 -5 0 -17 5 -27 10 -20 12 -261 103
-347 131 -33 11 -69 24 -80 29 -66 30 -773 257 -855 274 -8 2 -22 6 -30 9 -13
4 -43 12 -85 22 -5 2 -50 14 -100 28 -133 37 -395 104 -445 113 -14 3 -51 12
-83 20 -59 15 -445 98 -508 109 -19 3 -79 15 -134 25 -107 21 -447 77 -510 85
-21 3 -50 7 -64 10 -67 12 -247 35 -381 49 -30 4 -68 8 -85 11 -16 2 -57 7
-90 10 -33 3 -100 10 -150 15 -49 5 -119 11 -155 14 -36 3 -94 8 -130 11 -71
6 -153 12 -305 21 -55 3 -136 8 -180 10 -91 6 -1151 14 -1157 9z"/>
</g>
</svg>
